PathFileType	4	(X/Y/Z)	C:/ViconProjects/foot_20160225/trc/P_3_test01_dynamic.trc
DataRate	CameraRate	NumFrames	NumMarkers	Units	OrigDataRate	OrigDataStartFrame	OrigNumFrames
120.000000	120.000000	8	39	mm	120.000000	978	1954
Frame#	Time	LFWT			RFWT			VBWT			LKNE			LANK			LMT5			LMT1			LHEL			LTOE			RKNE			RANK			RMT5			RMT1			RHEL			RTOE			T10			FHEAD			THEAD			RHEAD			LBSH			LELB			LOWR			RBSH			RELB			ROWR			LTHI			RTHI			LSHAN			RSHAN			LIHEL			LOHEL			RIHEL			ROHEL			LMT3			LNAVI			LCUNE			RMT3			RNAVI			RCUNE			
		X0	Y0	Z0	X1	Y1	Z1	X2	Y2	Z2	X3	Y3	Z3	X4	Y4	Z4	X5	Y5	Z5	X6	Y6	Z6	X7	Y7	Z7	X8	Y8	Z8	X9	Y9	Z9	X10	Y10	Z10	X11	Y11	Z11	X12	Y12	Z12	X13	Y13	Z13	X14	Y14	Z14	X15	Y15	Z15	X16	Y16	Z16	X17	Y17	Z17	X18	Y18	Z18	X19	Y19	Z19	X20	Y20	Z20	X21	Y21	Z21	X22	Y22	Z22	X23	Y23	Z23	X24	Y24	Z24	X25	Y25	Z25	X26	Y26	Z26	X27	Y27	Z27	X28	Y28	Z28	X29	Y29	Z29	X30	Y30	Z30	X31	Y31	Z31	X32	Y32	Z32	X33	Y33	Z33	X34	Y34	Z34	X35	Y35	Z35	X36	Y36	Z36	X37	Y37	Z37	X38	Y38	Z38	
978	8.150000	-322.113800	126.503040	928.258240	-334.362950	-159.001250	924.903750	-550.711180	-5.985980	936.975890	-312.269100	161.393080	449.573390	-459.365080	155.299010	62.765380	-362.643460	188.549440	36.316620	-308.290470	117.158840	43.356240	-521.088930	93.409240	46.222650	-271.192050	131.675780	30.474280	-317.306980	-182.614120	447.778900	-445.826450	-168.711090	70.190090	-343.165440	-199.829760	31.749900	-297.272580	-120.108220	46.723410	-509.880460	-101.601230	44.228900	-254.025480	-134.836320	33.418700	-466.874270	32.309990	1287.934810	-38.222530	-40.855590	1412.249390	-36.872870	-46.663560	1551.452270	-156.829040	-42.111420	1598.965700	-284.085420	171.258300	1408.403080	-493.509000	307.354680	1197.610110	-605.906620	374.020840	971.904170	-291.564330	-232.453980	1384.097290	-496.874850	-339.963040	1147.404420	-584.186830	-377.374330	898.962220	-248.023730	98.450230	616.812010	-249.913410	-134.577070	567.980530	-326.623660	87.962030	304.945980	-353.418880	-103.354780	219.747160	-479.856660	64.761740	44.012630	-496.225430	135.913960	43.885230	-466.348940	-75.327540	44.573090	-483.141750	-147.974870	42.590280	-320.089020	154.881700	38.702800	-399.244900	69.031480	45.821730	-424.889590	169.022420	33.233660	-304.383240	-155.200550	38.960380	-392.079470	-80.958850	54.677610	-409.366090	-179.495530	33.064040
979	8.158333	-322.100740	126.304580	929.094600	-334.583440	-159.204670	925.585750	-551.171450	-5.885570	937.985600	-313.937130	161.120470	449.836940	-459.464900	155.267180	62.710370	-362.593780	188.491650	36.391100	-308.250520	117.084950	43.315550	-521.144900	93.335460	46.065670	-271.252440	131.658400	30.501570	-319.075930	-182.505750	448.207490	-445.783630	-168.717360	70.159230	-343.091550	-199.844960	31.706300	-297.332890	-120.111500	46.688730	-509.948330	-101.725360	44.055200	-254.087740	-134.886750	33.469570	-467.944430	32.879000	1288.307250	-39.739550	-40.840310	1414.852170	-39.746160	-45.983420	1553.952510	-159.394390	-41.485070	1600.583130	-285.094360	170.999270	1408.362550	-491.951080	307.943700	1194.744380	-601.245180	373.024350	966.703980	-292.887600	-232.425110	1384.507930	-494.484100	-340.343690	1144.625730	-576.441100	-378.261840	894.736760	-249.307860	98.633000	617.019040	-251.549940	-134.675060	568.341250	-328.097410	87.742650	305.087950	-353.906100	-103.664260	220.075070	-479.960910	64.700780	43.857430	-496.356140	135.791030	43.847230	-466.467650	-75.373460	44.477610	-483.239350	-148.079380	42.405190	-320.066650	154.841230	38.680530	-399.256230	68.920030	45.843920	-424.947750	168.951890	33.215100	-304.351530	-155.145200	38.921940	-392.233370	-80.969460	54.642770	-409.383580	-179.509170	33.040360
980	8.166667	-322.777010	126.395420	929.649290	-334.561400	-159.353790	926.249210	-551.608030	-5.805270	938.462770	-315.076690	160.542940	450.117030	-459.576510	155.214260	62.652600	-362.501530	188.377880	36.484810	-308.292790	116.980220	43.269920	-521.143740	93.278850	45.902850	-271.262820	131.788480	30.565180	-320.380000	-182.138320	448.636320	-445.842960	-168.750490	70.138260	-343.195160	-199.838880	31.737160	-297.341000	-120.055790	46.640590	-509.959080	-101.776500	43.921230	-254.277980	-134.877530	33.575350	-469.488430	33.448340	1288.351680	-41.515270	-40.224480	1417.103150	-41.804480	-45.847630	1556.186040	-162.226300	-41.258260	1601.923220	-286.112790	171.687420	1408.432010	-490.712770	308.402470	1191.359380	-596.022640	371.955840	961.425420	-294.784910	-232.513030	1384.913940	-493.231600	-340.814480	1141.715450	-570.738530	-379.120570	890.689510	-250.173420	98.690460	617.130860	-252.381680	-134.586360	568.639280	-328.742710	87.427090	305.423800	-354.244750	-103.655270	220.284350	-480.066530	64.506710	43.599330	-496.343020	135.700450	43.788720	-466.700990	-75.438390	44.312400	-483.399600	-148.208830	42.286060	-320.072080	154.827770	38.682750	-399.230900	68.860400	45.790410	-425.098940	168.845730	33.201830	-304.468140	-155.185780	38.888980	-392.325350	-80.964390	54.577240	-409.384090	-179.532780	33.034480
981	8.175000	-323.359830	126.595850	930.114750	-335.451080	-159.359970	926.845400	-552.006770	-5.774080	938.650570	-316.590390	160.298100	450.590420	-459.735840	155.025300	62.416870	-362.390630	188.277480	36.563170	-308.282260	116.968570	43.280140	-521.230900	93.084210	45.683680	-271.266970	131.805480	30.602800	-321.885250	-181.737320	449.172390	-445.963780	-168.694090	70.107060	-343.202150	-199.853290	31.722750	-297.354430	-119.972890	46.633430	-509.961210	-101.874170	43.686130	-254.309270	-134.937930	33.562260	-471.468570	33.171870	1288.482910	-43.324230	-39.971000	1418.454350	-44.199330	-45.269890	1557.980470	-164.593190	-40.849040	1603.025880	-287.887120	172.288070	1408.246460	-488.756160	308.968260	1187.450930	-589.923520	370.722470	955.476620	-296.513890	-232.521000	1384.774170	-490.956670	-340.800230	1138.119380	-563.241700	-379.964450	886.347110	-250.855560	98.694950	617.571660	-253.671190	-134.223250	568.690310	-329.929500	87.207920	305.878200	-355.061520	-103.455050	220.445720	-480.062410	64.188640	43.189560	-496.245060	135.366010	43.432330	-466.995060	-75.563840	44.107410	-483.458500	-148.333740	42.136970	-320.088350	154.806080	38.692800	-399.258120	68.723170	45.789350	-425.139500	168.726240	33.117690	-304.146360	-155.882780	38.786630	-392.441160	-80.884770	54.503470	-409.378270	-179.507220	33.007430
982	8.183333	-323.557370	126.565620	930.382390	-335.903380	-159.308580	927.314510	-552.435060	-5.750670	938.680790	-318.156890	160.274550	451.065460	-460.025240	154.713620	62.010790	-362.350130	188.127980	36.509280	-308.203430	116.928890	43.206150	-521.132020	92.942720	45.494240	-271.277370	131.873600	30.623330	-322.396270	-181.394200	449.377960	-445.999240	-168.659260	70.068790	-343.211730	-199.854660	31.739210	-297.385530	-119.939120	46.540480	-510.162290	-101.988520	43.440200	-254.437940	-134.895720	33.644520	-472.914250	33.658410	1288.494750	-45.316360	-39.737580	1420.611690	-46.755800	-45.128800	1560.046750	-167.107510	-40.338800	1604.312130	-289.697910	172.708340	1407.333860	-486.999630	309.324250	1182.971920	-583.830080	369.590730	948.822690	-298.298000	-232.314210	1384.677120	-488.613560	-340.981900	1134.323970	-555.580320	-380.916290	881.174620	-252.227970	98.670910	618.041560	-254.607450	-133.684200	568.674740	-330.977870	87.312140	305.839900	-355.834930	-103.181720	220.441300	-479.993290	64.002660	42.846720	-496.124150	134.990690	43.161430	-467.195860	-75.661040	43.905570	-483.412080	-148.425860	41.963750	-320.073880	154.753940	38.654320	-399.171300	68.611600	45.729130	-425.108490	168.627940	33.093000	-304.184140	-155.879700	38.761100	-392.490200	-80.836120	54.348260	-409.429350	-179.517960	32.999080
983	8.191667	-323.463070	126.697160	930.524050	-336.440550	-159.272660	927.775630	-552.904170	-5.642120	938.555910	-318.076540	160.754590	451.122990	-460.512150	154.500090	62.377570	-362.333160	187.987960	36.560010	-308.234800	116.883730	43.149500	-520.841800	92.840030	45.315410	-271.296450	131.916900	30.669380	-323.170750	-181.067410	449.587650	-446.091460	-168.598710	69.933270	-343.160520	-199.823680	31.754980	-297.418640	-119.819300	46.472730	-510.216860	-102.157210	43.245030	-254.461300	-134.867600	33.631580	-474.402680	33.977360	1288.330080	-46.315940	-39.497940	1421.960330	-49.042480	-44.811030	1561.441040	-170.296540	-39.994430	1605.291990	-291.280670	173.449950	1407.523190	-484.682160	309.778780	1178.422610	-577.161990	367.920650	942.095090	-299.986970	-232.297940	1384.308590	-485.869080	-340.842830	1130.287600	-546.486630	-381.331300	876.080080	-252.668230	98.720120	618.061280	-255.320950	-133.404050	568.588500	-331.577420	87.028800	306.049900	-356.441960	-102.721600	220.493270	-479.960020	63.809790	42.845550	-496.049350	134.770600	42.960180	-467.335170	-75.759850	43.639300	-483.537020	-148.505200	41.910610	-320.058260	154.727940	38.664980	-399.194580	68.376660	45.634820	-425.258760	168.543230	33.131920	-304.128720	-155.841920	38.739300	-392.158080	-81.065100	54.414780	-409.410100	-179.513720	33.051540
984	8.200000	-324.964660	126.592820	930.350400	-336.762390	-159.204570	927.887080	-553.541020	-5.685790	937.798770	-319.249970	160.467970	451.103150	-460.747040	154.357160	62.136830	-362.449400	187.916630	36.622330	-308.189640	116.795160	43.104890	-520.900210	92.571120	44.958310	-271.402190	132.032870	30.632830	-323.927950	-180.434390	449.526250	-446.106540	-168.584720	69.755290	-343.232880	-199.823200	31.786450	-297.467470	-119.568640	46.343660	-510.256840	-102.303320	43.027190	-254.539890	-134.869490	33.697850	-476.374240	34.542390	1288.029910	-48.195670	-39.676300	1423.895750	-51.819690	-44.307470	1563.135500	-172.814160	-39.667900	1606.118290	-292.679470	174.051830	1406.072270	-482.457000	309.847080	1173.492430	-570.262630	366.420040	935.111510	-302.216060	-232.390270	1383.634160	-482.821870	-340.853330	1125.800660	-537.666380	-381.893890	870.795100	-253.224180	98.901550	618.402950	-256.042600	-133.074980	568.846130	-332.173550	86.852180	306.004670	-357.052580	-102.146030	220.484180	-480.116940	63.738400	42.747360	-496.072360	134.630100	42.860620	-467.562530	-75.874760	43.419820	-483.622380	-148.669220	41.702240	-320.048680	154.690340	38.668680	-399.210540	68.193920	45.461240	-425.319340	168.436800	33.143470	-304.146760	-155.728710	38.673340	-392.161930	-81.064100	54.127560	-409.454800	-179.494720	33.064950
985	8.208333	-325.807010	126.802380	930.203190	-336.862700	-159.207090	927.831480	-554.001400	-5.642140	937.038020	-320.713960	160.410570	451.213040	-460.951420	154.148120	62.017910	-362.529570	187.824160	36.596580	-308.134890	116.842700	43.144690	-520.994020	92.362300	44.613880	-271.433750	132.127640	30.695030	-324.430940	-179.741790	449.447480	-446.166380	-168.609800	69.648530	-343.183410	-199.820160	31.743470	-297.525850	-119.474770	46.230690	-510.450780	-102.545530	42.824820	-254.570530	-134.836670	33.684500	-477.952700	34.958380	1287.230830	-49.654480	-39.345130	1425.283690	-54.162460	-44.462310	1564.682500	-175.807830	-39.198330	1606.873900	-294.515780	174.902500	1405.641110	-480.282990	309.958310	1168.387330	-562.254330	365.016720	927.945620	-303.913540	-231.901540	1383.067630	-479.976290	-340.491390	1121.336670	-529.372440	-381.886260	865.304080	-254.177030	99.321340	618.749690	-256.818700	-132.614850	568.820560	-332.907230	86.779000	306.025790	-357.181550	-101.741580	220.374660	-480.056340	63.533490	42.479970	-496.097780	134.456090	42.827470	-467.701020	-75.899350	43.170010	-483.665920	-148.794430	41.590070	-320.056120	154.695400	38.629540	-399.181520	68.045320	45.149080	-425.391270	168.389660	33.138270	-304.096310	-155.665540	38.591950	-392.063510	-81.021460	53.844230	-409.435150	-179.469790	33.050900
